<?xml version="1.0" encoding="UTF-8"?>
<svg id="Layer_1" xmlns="http://www.w3.org/2000/svg" version="1.1" viewBox="0 0 14 14">
  <!-- Generator: Adobe Illustrator 29.8.2, SVG Export Plug-In . SVG Version: 2.1.1 Build 3)  -->
  <defs>
    <style>
      .st0 {
        fill: #fff;
      }

      .st1 {
        fill: #c94736;
      }
    </style>
  </defs>
  <path class="st1" d="M7,.5c-1.29,0-2.54.38-3.61,1.1-1.07.71-1.9,1.73-2.39,2.92-.49,1.19-.62,2.49-.37,3.76.25,1.26.87,2.42,1.78,3.33s2.07,1.53,3.33,1.78c1.26.25,2.57.12,3.76-.37,1.19-.49,2.2-1.33,2.92-2.39.71-1.07,1.1-2.33,1.1-3.61,0-1.72-.69-3.38-1.91-4.59-1.22-1.22-2.87-1.9-4.59-1.91ZM6.5,4c0-.13.05-.26.15-.35.09-.09.22-.15.35-.15s.26.05.35.15.15.22.15.35v3.5c0,.13-.05.26-.15.35s-.22.15-.35.15-.26-.05-.35-.15c-.09-.09-.15-.22-.15-.35v-3.5ZM7,10.5c-.15,0-.29-.04-.42-.13-.12-.08-.22-.2-.28-.34-.06-.14-.07-.29-.04-.43.03-.15.1-.28.21-.38s.24-.18.38-.21c.15-.03.3-.01.43.04.14.06.25.15.34.28.08.12.13.27.13.42,0,.2-.08.39-.22.53-.14.14-.33.22-.53.22Z"/>
  <ellipse class="st1" cx="6.78" cy="6.75" rx="2.09" ry="4.32"/>
  <path class="st0" d="M7,6.43l2.12-2.12c.16-.16.41-.16.57,0,.16.16.16.41,0,.57l-2.12,2.12,2.12,2.12c.16.16.16.41,0,.57-.16.16-.41.16-.57,0l-2.12-2.12-2.12,2.12c-.16.16-.41.16-.57,0-.16-.16-.16-.41,0-.57l2.12-2.12-2.12-2.12c-.16-.16-.16-.41,0-.57.16-.16.41-.16.57,0l2.12,2.12h0Z"/>
</svg>