<?xml version="1.0" encoding="UTF-8"?>
<svg id="Layer_1" xmlns="http://www.w3.org/2000/svg" xmlns:xlink="http://www.w3.org/1999/xlink" version="1.1" viewBox="0 0 560 920">
  <!-- Generator: Adobe Illustrator 29.8.2, SVG Export Plug-In . SVG Version: 2.1.1 Build 3)  -->
  <defs>
    <style>
      .st0 {
        fill: none;
      }

      .st1 {
        mask: url(#mask);
      }

      .st2 {
        fill: #201f24;
      }

      .st3 {
        fill: #f2cdac;
      }

      .st4 {
        fill: #ff7e6d;
      }

      .st5 {
        fill: #8fdce8;
      }

      .st6 {
        mask: url(#mask-2);
      }

      .st7 {
        mask: url(#mask-3);
      }

      .st8 {
        mask: url(#mask-4);
      }

      .st9 {
        mask: url(#mask-5);
      }

      .st10 {
        mask: url(#mask-6);
      }

      .st11 {
        mask: url(#mask-1);
      }

      .st12 {
        fill: #101720;
      }

      .st13 {
        fill: #008fb1;
      }

      .st14 {
        fill: #fff;
      }

      .st15 {
        fill: #f8f4f0;
      }

      .st16 {
        fill: #ff7e6e;
      }

      .st17 {
        fill: #82c9d7;
      }

      .st18 {
        clip-path: url(#clippath);
      }

      .st19 {
        fill: #626070;
      }
    </style>
    <clipPath id="clippath">
      <rect class="st0" width="560" height="920"/>
    </clipPath>
    <mask id="mask" x="146.3" y="184.27" width="53.68" height="76.02" maskUnits="userSpaceOnUse">
      <g id="b">
        <path class="st14" d="M156.12,233.73l-1.93,23.69,25.75-3.2-1.61-12.32c4.35-.64,11.75-2.4,15.29-7.2,5.15-6.88,1.77-20.81,1.77-20.81,0,0,5.31-1.44,4.51-4.64-.97-3.04-5.31-2.56-5.31-2.56-2.09-7.68-7.73-22.41-7.73-22.41l-37.02,7.68s.8,5.76,1.77,13.28c.48,3.04-4.18,6.72-3.7,10.08.48,3.2,6.12,5.92,6.6,8.8.64,4.16,1.29,7.52,1.77,9.6h-.16Z"/>
      </g>
    </mask>
    <mask id="mask-1" x="178.49" y="202.23" width="11.75" height="7.18" maskUnits="userSpaceOnUse">
      <g id="c">
        <path class="st14" d="M190.24,204.6s-2.41-3.36-6.92-2.08c-4.51,1.28-4.83,4.32-4.83,4.32,0,0,2.41,3.36,6.6,2.4,4.18-.96,5.15-4.48,5.15-4.48v-.16Z"/>
      </g>
    </mask>
    <mask id="mask-2" x="221.3" y="350.79" width="162.4" height="165.73" maskUnits="userSpaceOnUse">
      <g id="d">
        <path class="st14" d="M235.46,442.26l44.42-15.52,47.48,72.18,56.33-38.73s-42.97-95.07-60.84-106.43-90.29,13.6-90.29,13.6l2.74,74.74.16.16Z"/>
      </g>
    </mask>
    <mask id="mask-3" x=".32" y="381.28" width="246.73" height="229.82" maskUnits="userSpaceOnUse">
      <g id="e">
        <path class="st14" d="M247.05,396.65c0,50.57-13.04,78.58-54.88,120.19-41.85,41.61-105.58,74.58-105.58,74.58,0,0,4.51-11.2,0-34.41-4.51-23.21-43.13-67.7-57.14-63.06,0,0,59.07-35.69,78.06-49.29,0,0-28.33-27.69-17.06-48.17h156.6v.16Z"/>
      </g>
    </mask>
    <mask id="mask-4" x="-14.49" y="203" width="366.32" height="197.01" maskUnits="userSpaceOnUse">
      <g id="f">
        <path class="st14" d="M23.01,362.56c61.8-73.78,84.98-105.15,133.75-111.87,48.77-6.72,110.73,29.61,110.73,29.61l43.29-61.46s25.75,6.72,41.04,17.92c0,0-32.51,73.78-59.55,96.19-27.04,22.4-55.04,4.96-55.04,4.96l9.98,58.73H90.61l4.83-37.77-33.64,41.13-38.63-37.45h-.16Z"/>
      </g>
    </mask>
    <mask id="mask-5" x="306.76" y="186.51" width="61.16" height="53.93" maskUnits="userSpaceOnUse">
      <g id="g">
        <path class="st14" d="M310.79,218.84c5.95-9.28,2.41-20.65,14-20.17,0,0,4.18-6.72,7.89-8.8,3.7-2.08,7.24-.48,7.89,3.04,0,0,3.7-1.76,6.6.32,2.9,2.08,2.74,4.48,2.74,4.48,0,0,4.99-.48,7.08,2.72,2.09,3.2.8,5.12.8,5.12,0,0,6.44-.32,6.28,6.4-.32,6.56-12.23,24.97-12.23,24.97l-41.04-17.93v-.16Z"/>
      </g>
    </mask>
    <mask id="mask-6" x="-21.14" y="357.6" width="86" height="86.74" maskUnits="userSpaceOnUse">
      <g id="h">
        <path class="st14" d="M61.64,400.01s-13.68,20.96-18.51,22.41c-4.83,1.6-5.47-10.4-5.47-10.4,0,0-18.67,23.69-22.53,25.93-3.86,2.24-8.21-2.4-7.24-5.92,0,0-6.6,6.72-10.14,3.68-3.54-3.04-.8-10.08-.8-10.08,0,0-5.96,5.12-9.17,1.76-3.22-3.36-.48-8.8-.48-8.8,0,0-5.15.96-6.12-4.48-.97-5.44,16.9-21.45,42.01-51.37l38.63,37.45-.16-.16Z"/>
      </g>
    </mask>
  </defs>
  <g class="st18">
    <g>
      <path class="st2" d="M0,0h560v920H0V0Z"/>
      <path class="st3" d="M328,124.5L901-215V-34.45l-499,179.45-74-20.5Z"/>
      <path class="st19" d="M211,119.8l219.51-318.8,183.49,119.13-341,216.87-62-17.2Z"/>
      <path class="st15" d="M429.73,270.53c-26.56,27.21-45.87,38.57-45.87,38.57l4.83,6.88s26.56-21.29,41.04-37.77v-7.68Z"/>
      <path class="st12" d="M388.69,316.63s-.32,0-.32-.16l-4.83-6.88v-.32q0-.16.16-.32c.16,0,19.48-11.68,45.71-38.57,0,0,.32-.16.48,0,.16,0,.32.32.32.48v8c-14.32,16.48-40.88,37.77-41.04,37.93h-.32l-.16-.16ZM384.66,309.26l4.18,6.08c3.38-2.72,27.04-22.09,40.4-37.29v-6.24c-23.82,24.01-41.69,35.69-44.58,37.61v-.16Z"/>
      <path class="st15" d="M363.42,277.9c-26.56,27.21-45.87,38.57-45.87,38.57l4.83,6.88s26.56-21.29,41.04-37.77v-7.68Z"/>
      <path class="st12" d="M322.38,323.83s-.32,0-.32-.16l-4.83-6.88v-.32q0-.16.16-.32c.16,0,19.48-11.68,45.71-38.57,0,0,.32-.16.48,0,.16,0,.32.32.32.48v8c-14.33,16.49-40.88,37.77-41.04,37.93h-.32l-.16-.16ZM318.35,316.63l4.18,6.08c3.38-2.72,27.04-22.09,40.4-37.29v-6.24c-23.82,24.01-41.69,35.69-44.58,37.61v-.16Z"/>
      <path class="st17" d="M463.05,398.57s-25.59-26.89-41.52-68.66c-9.82-25.93-16.1-57.45-10.14-91.86,15.45-89.94-18.67-139.56-18.67-139.56l114.27-36.17c81.44,82.42,14.48,145,27.04,207.09,1.77,8.8,4.18,16.64,6.92,23.85,17.06,43.69,49.25,59.38,49.25,59.38l-127.15,45.77v.16Z"/>
      <path class="st12" d="M463.04,399.05h-.32c-.32-.32-25.91-27.53-41.69-68.82-11.91-31.05-15.29-61.94-10.14-92.02,8.05-46.41,2.58-81.78-3.54-103.39-6.44-23.37-14.97-35.85-15.13-35.85v-.48c0-.16.16-.32.32-.32l114.27-36.17h.48c24.14,24.33,37.34,49.29,40.4,76.02,2.74,23.53-2.41,45.61-7.4,67.06-5.15,22.25-10.14,43.21-5.79,64.34,1.61,8.32,4.02,16.32,6.92,23.85,16.74,43.05,48.77,59.06,49.09,59.22.16,0,.32.32.32.48s0,.32-.32.48l-127.31,45.77h-.16v-.16ZM393.35,98.65c1.61,2.72,9.01,14.88,14.97,35.69,6.12,21.6,11.59,57.13,3.54,103.71-5.15,29.77-1.77,60.66,9.98,91.54,14.97,39.21,38.63,65.46,41.2,68.34l125.86-45.45c-5.47-3.04-33.32-20.01-48.61-59.22-2.9-7.68-5.31-15.68-7.08-24.01-4.35-21.29.64-42.41,5.79-64.82,10.14-43.21,20.6-87.86-32.51-141.96l-113.31,35.85.16.32Z"/>
      <path class="st17" d="M560.74,348.31l-93.35,33.61c-7.89-9.92-22.21-30.09-32.35-56.33-3.06-7.68-5.63-15.85-7.73-24.65-4.83-20.49-5.47-40.97-2.09-60.66,6.12-35.85,5.63-69.78-1.61-100.83-3.22-13.76-7.24-24.81-10.78-32.81l89.65-28.33c15.29,16.8,24.62,33.61,28.65,51.05,5.79,24.81.32,47.69-5.31,72.18-5.31,22.73-10.78,46.25-5.96,70.58.32,1.6.64,3.04.97,4.64,1.77,7.36,3.86,14.24,6.28,20.64,3.22,8.64,7.24,16.32,11.27,23.05,7.08,11.84,15.13,20.97,22.37,27.69v.16Z"/>
      <path class="st12" d="M467.39,382.4s-.32,0-.32-.16c-7.73-9.76-22.21-29.93-32.35-56.33-3.22-8.16-5.79-16.48-7.73-24.65-4.83-20.64-5.47-41.13-2.09-60.82,6.12-35.69,5.63-69.62-1.61-100.67-2.58-11.68-6.28-22.57-10.78-32.65v-.32s.16-.16.32-.32l89.65-28.33h.48c15.29,16.8,24.63,33.61,28.81,51.37,5.79,24.97.32,48.01-5.31,72.34v.8c-5.31,22.57-10.78,45.77-5.96,69.62.32,1.44.48,2.72.8,4v.64c1.77,6.88,3.86,13.92,6.44,20.64,3.06,7.84,6.6,15.36,11.27,23.05,6.28,10.4,13.68,19.68,22.21,27.69,0,0,.16.32,0,.48s0,.32-.32.32l-93.35,33.61h-.16v-.32ZM413.64,107.13c4.35,9.92,8.05,20.96,10.62,32.33,7.24,31.21,7.73,65.14,1.61,100.99-3.38,19.52-2.74,39.85,2.09,60.49,1.93,8.16,4.51,16.48,7.57,24.49,10.14,26.09,24.3,46.09,32.03,55.85l92.22-33.29c-8.21-7.84-15.61-17.12-21.73-27.37-4.51-7.68-8.21-15.2-11.27-23.21-2.58-6.72-4.67-13.76-6.28-20.64v-.64c-.48-1.28-.64-2.56-.97-4-4.83-24.01.48-47.37,5.79-69.94v-.8c5.96-24.17,11.27-47.05,5.47-71.86-4.02-17.44-13.36-34.09-28.33-50.73l-88.84,28.17v.16Z"/>
      <path class="st3" d="M590.2,352.8l-127.31,45.77s-25.59-26.89-41.52-68.66l13.68-4.32c10.14,26.25,24.46,46.41,32.35,56.33l93.35-33.61c-7.24-6.88-15.13-16-22.37-27.69-4.02-6.88-7.89-14.4-11.27-23.05l13.68-4.16c17.06,43.85,49.41,59.38,49.41,59.38h0Z"/>
      <path class="st12" d="M463.05,399.05h-.32c-.32-.32-25.75-27.37-41.69-68.82,0-.16,0-.48.32-.64l13.68-4.16c.32,0,.48,0,.64.32,10.14,26.09,24.3,46.09,32.03,55.85l92.22-33.29c-8.21-7.84-15.61-17.12-21.73-27.37-4.51-7.68-8.21-15.2-11.27-23.21v-.32l.32-.32,13.68-4.16c.32,0,.48,0,.64.32,8.85,22.57,21.73,37.45,30.9,45.93,9.98,9.28,18.03,13.12,18.19,13.28.16,0,.32.32.32.48s0,.32-.32.48l-127.31,45.77h-.16l-.16-.16ZM422,330.07c14.97,38.89,38.63,65.14,41.04,67.86l125.86-45.29c-2.41-1.28-9.34-5.44-17.38-12.8-9.34-8.48-22.21-23.37-31.06-45.93l-12.72,3.84c2.9,7.68,6.6,15.04,10.94,22.57,6.28,10.4,13.68,19.68,22.21,27.69,0,0,.16.32,0,.48-.16.16,0,.32-.32.32l-93.35,33.61c-.16,0-.48,0-.48-.16-7.73-9.6-22.05-29.77-32.19-56.01l-12.71,3.84h.16Z"/>
      <path class="st3" d="M475.76,279.18c-30.42,7.04-55.53-5.12-56.33-27.05-.8-21.93,23.34-45.29,53.76-52.33,30.42-7.04,55.53,5.12,56.33,27.05s-23.34,45.29-53.76,52.33Z"/>
      <path class="st12" d="M459.18,281.58c-11.43,0-21.73-2.88-29.13-8.48-6.92-5.28-10.78-12.48-10.95-20.97-.8-22.08,23.5-45.77,54.08-52.81,18.03-4.16,35.09-1.6,45.87,6.56,6.92,5.28,10.78,12.48,10.94,20.97.8,22.09-23.5,45.77-54.08,52.81-5.79,1.28-11.43,1.92-16.74,1.92h0ZM489.92,198.35c-5.31,0-10.95.64-16.58,1.92-30.1,6.88-54.08,30.09-53.27,51.85.32,8.16,4.02,15.04,10.62,20.17,10.46,8,27.36,10.4,45.07,6.4,30.1-6.88,54.08-30.09,53.27-51.85-.32-8.16-4.02-15.04-10.62-20.17-7.24-5.44-17.22-8.32-28.49-8.32h0Z"/>
      <path class="st12" d="M519.06,119.61c-.16,0-.32,0-.48-.32-6.76-19.53-23.98-36.81-24.14-36.97-.16-.16-.16-.48,0-.64.16-.16.48-.16.64,0,.16.16,17.54,17.6,24.3,37.29,0,.32,0,.48-.32.64h-.16.16Z"/>
      <path class="st12" d="M508.43,123.14c-.16,0-.32,0-.48-.32-6.28-20.49-22.53-37.45-22.69-37.77-.16-.16-.16-.48,0-.64.16-.16.48-.16.64,0,.16.16,16.58,17.44,22.86,38.09,0,.32,0,.48-.32.64h0Z"/>
      <path class="st12" d="M497.81,126.66c-.16,0-.32,0-.48-.32-5.95-21.45-21.08-38.25-21.24-38.41-.16-.16-.16-.48,0-.64.16-.16.48,0,.64,0,.16.16,15.45,17.12,21.57,38.73,0,.32,0,.48-.32.64h-.16Z"/>
      <path class="st12" d="M487.03,130.18c-.16,0-.48,0-.48-.32-5.63-22.41-19.8-39.05-19.96-39.21-.16-.16,0-.48,0-.64.16-.16.48,0,.64,0,0,0,14.48,16.96,20.12,39.53,0,.32,0,.48-.32.64Z"/>
      <path class="st12" d="M476.4,133.7c-.16,0-.48,0-.48-.32-5.15-23.37-18.35-39.69-18.51-39.85-.16-.16,0-.48,0-.64h.64s13.52,16.64,18.67,40.33c0,.32,0,.48-.32.64v-.16Z"/>
      <path class="st12" d="M465.78,137.22c-.16,0-.48,0-.48-.32-4.83-24.33-16.9-40.49-17.06-40.65-.16-.16,0-.48,0-.64s.48,0,.64,0c0,0,12.39,16.48,17.22,40.97,0,.32,0,.48-.32.48v.16Z"/>
      <path class="st12" d="M455,140.74c-.16,0-.48,0-.48-.32-4.51-25.29-15.61-41.13-15.77-41.29-.16-.16,0-.48,0-.64s.48,0,.64,0c0,0,11.43,16.32,15.93,41.77,0,.32,0,.48-.32.48h0Z"/>
      <path class="st12" d="M444.38,144.26c-.16,0-.48-.16-.48-.32-4.02-26.25-14.16-41.93-14.33-42.09v-.64h.64s10.46,16,14.49,42.41c0,.32,0,.48-.32.48v.16Z"/>
      <path class="st12" d="M433.75,147.78c-.16,0-.48-.16-.48-.48-3.7-27.21-12.88-42.73-12.88-42.89s0-.48.16-.64c.16-.16.48,0,.64,0,0,0,9.33,15.84,13.04,43.21,0,.32,0,.48-.48.48v.32Z"/>
      <path class="st15" d="M532.74,261.25c22.53,3.68,12.72,29.29-25.75,57.14l10.14,4.16s17.71-12,31.06-30.73c13.36-18.73,4.83-35.37-15.93-37.45l.32,6.72.16.16Z"/>
      <path class="st12" d="M517.12,323.03h-.16l-10.14-4.16c-.16,0-.32-.16-.32-.32s0-.32.16-.48c25.27-18.24,39.91-37.13,37.18-48.01-.97-4.32-4.99-7.2-11.27-8.16-.16,0-.32-.16-.32-.48l-.32-6.72v-.32h.32c10.14.96,17.86,5.6,21.08,12.64,3.38,7.36,1.61,16.49-4.83,25.61-13.2,18.4-31.06,30.73-31.22,30.73h-.32l.16-.32ZM507.95,318.23l9.17,3.84c2.09-1.44,18.35-13.12,30.74-30.41,6.28-8.8,8.05-17.45,4.83-24.65-3.06-6.56-10.14-11.04-19.64-12l.32,5.76c6.44,1.12,10.46,4.16,11.59,8.96,2.74,11.36-11.43,29.93-36.86,48.49h-.16Z"/>
      <path class="st15" d="M403.82,165.87c-28.65,14.4-39.92,27.05-39.92,27.05l5.96,4.8,33.96-31.85Z"/>
      <path class="st12" d="M370.02,198.2h-.32l-5.95-4.8s-.16-.16-.16-.32v-.32s11.59-12.96,40.08-27.05c.16,0,.48,0,.64.16v.64l-33.96,31.85h-.32v-.16ZM364.71,192.75l5.15,4.16,31.22-29.13c-23.5,12.16-34.44,22.89-36.37,24.97Z"/>
      <path class="st15" d="M414.76,336.47c-26.56,27.21-45.87,38.57-45.87,38.57l4.83,6.88s26.56-21.29,41.04-37.77v-7.68Z"/>
      <path class="st12" d="M373.72,382.4s-.32,0-.32-.16l-4.83-6.88v-.32q0-.16.16-.32c.16,0,19.47-11.68,45.71-38.57,0,0,.32-.16.48,0,.16,0,.32.32.32.48v8c-14.33,16.49-40.88,37.61-41.04,37.93h-.32l-.16-.16ZM369.69,375.2l4.18,6.08c3.38-2.72,27.04-22.09,40.4-37.29v-6.24c-23.82,24.01-41.69,35.69-44.58,37.61v-.16Z"/>
      <path class="st15" d="M503.61,335.83c-26.56,27.21-45.87,38.57-45.87,38.57l4.83,6.88s26.56-21.29,41.04-37.77v-7.68Z"/>
      <path class="st12" d="M462.56,381.76s-.32,0-.32-.16l-4.83-6.88v-.32q0-.16.16-.32c.16,0,19.48-11.68,45.71-38.57,0,0,.32-.16.48,0,.16,0,.32.32.32.48v8c-14.32,16.49-40.88,37.61-41.04,37.93h-.32l-.16-.16ZM458.54,374.56l4.18,6.08c3.38-2.72,27.04-22.09,40.4-37.29v-6.24c-23.82,24.01-41.69,35.69-44.58,37.61v-.16Z"/>
      <path class="st15" d="M571.53,330.23c9.01,8.64-2.25,33.77-16.9,51.69l6.12,4.96s27.52-27.69,16.58-56.65h-5.79Z"/>
      <path class="st12" d="M560.74,387.36h-.32l-6.12-4.96c-.16-.16-.16-.48,0-.64,14.97-18.08,25.59-42.89,16.9-51.05,0,0-.16-.32,0-.48,0-.16.32-.32.48-.32h5.79c.16,0,.32,0,.48.32,10.94,28.97-16.42,56.98-16.74,57.14h-.48ZM555.27,381.92l5.47,4.48c2.9-3.2,26.07-28.81,16.26-55.53h-4.35c4.51,5.44,2.41,14.88-.16,22.09-3.38,9.28-9.66,19.85-17.22,29.13v-.16Z"/>
      <path class="st4" d="M156.11,233.57l-1.93,23.85,25.75-3.2-1.61-12.32c4.35-.64,11.75-2.4,15.29-7.2,5.15-6.88,1.77-20.65,1.77-20.65,0,0,5.31-1.44,4.51-4.64-.97-3.04-5.31-2.56-5.31-2.56-2.09-7.68-7.73-22.57-7.73-22.57l-37.02,7.68s.8,5.76,1.77,13.28c.48,3.04-4.18,6.72-3.7,10.08.48,3.2,6.12,5.92,6.6,8.64.64,4.16,1.29,7.52,1.77,9.6h-.16Z"/>
      <g class="st1">
        <path class="st13" d="M193.62,234.68c-5.31,4.16-20.92,1.28-25.91-4.64-4.99-5.92,1.61-12,.32-18.73-1.29-6.72-4.35-15.68-4.35-15.68l-17.38,17.29,9.34,27.37s12.88,3.2,16.26,8.16c3.38,4.96-.64,11.84-.64,11.84l20.6-7.68,1.77-17.92Z"/>
      </g>
      <path class="st12" d="M154.03,257.89h-.32s-.16-.16,0-.32l1.93-23.69c-.32-1.92-.96-5.12-1.77-9.6-.16-1.28-1.61-2.56-2.9-3.84-1.61-1.44-3.22-3.04-3.54-4.96-.32-1.76.8-3.68,1.93-5.6.97-1.6,1.93-3.2,1.77-4.48-.97-7.36-1.77-13.28-1.77-13.28,0-.32,0-.48.32-.48l37.02-7.68c.16,0,.48,0,.48.32,0,0,5.47,14.56,7.73,22.09,1.13,0,4.51,0,5.31,2.88.16.8,0,1.44-.16,2.24-.97,1.6-3.06,2.56-4.02,2.88.48,2.4,2.9,14.24-1.93,20.65-3.54,4.64-10.78,6.56-15.13,7.2l1.45,11.84v.32s-.16.16-.32.16l-25.75,3.2-.32.16ZM150.32,192.43c.16,1.44.97,6.56,1.77,12.8.16,1.6-.8,3.36-1.93,5.12-.97,1.6-2.09,3.36-1.77,4.96.16,1.44,1.77,2.88,3.22,4.32,1.61,1.44,3.06,2.88,3.22,4.32.64,4.48,1.29,7.68,1.77,9.6l-1.93,23.37,24.79-3.04-1.45-11.84v-.16c0-.16.16-.32.32-.48,4.18-.64,11.43-2.24,14.97-6.88,4.99-6.72,1.77-20.17,1.77-20.32,0-.32,0-.48.32-.64,0,0,3.06-.8,4.02-2.56.32-.48.32-.96.16-1.44-.8-2.56-4.67-2.24-4.67-2.24-.16,0-.48,0-.48-.32-1.93-6.88-6.76-19.68-7.57-22.09l-36.21,7.52h-.32Z"/>
      <path class="st15" d="M190.24,204.6s-2.41-3.36-6.92-2.08c-4.51,1.28-4.83,4.32-4.83,4.32,0,0,2.41,3.36,6.6,2.4,4.18-.96,5.15-4.64,5.15-4.64h0Z"/>
      <g class="st11">
        <path class="st12" d="M186.21,209.24c1.69,0,3.06-1.36,3.06-3.04s-1.37-3.04-3.06-3.04-3.06,1.36-3.06,3.04,1.37,3.04,3.06,3.04Z"/>
      </g>
      <path class="st12" d="M185.25,226.04c-.48,0-.97,0-1.29-.32-1.29-.64-2.09-1.92-2.25-3.68,0-.32.16-.48.48-.48s.48.16.48.48c0,1.44.64,2.4,1.61,2.88.8.32,1.77.16,2.74-.48.16-.16.48,0,.64,0s0,.48,0,.64c-.64.48-1.45.8-2.25.8l-.16.16Z"/>
      <path class="st12" d="M178.16,202.36h-.16c-.16,0-.32-.48-.16-.64.8-1.6,2.57-2.72,4.83-3.36,2.41-.64,4.83-.16,6.44,1.12.16.16.32.48,0,.64-.32.16-.48.32-.64,0-1.45-.96-3.54-1.44-5.63-.96-1.93.48-3.54,1.44-4.18,2.72,0,.16-.32.32-.48.32v.16Z"/>
      <path class="st12" d="M183.32,202.36s-2.25.48-3.54,1.92c-1.29,1.44-1.77,2.72-2.25,3.04l.8.64s1.93-4.48,5.15-5.6h-.16Z"/>
      <path class="st17" d="M137.93,216.92c.64,1.12,1.45,2.08,2.09,3.2,8.69,13.12,15.13,23.69,15.13,23.69l2.09-20.65c-2.74.16-9.66-5.44-5.79-11.84,3.22-5.28,8.85,1.92,10.62,3.04.32.16.64.32.97.32s.48-.64.48-.96c.8-4.96.32-10.08-1.45-14.88,2.74-.32,5.63-.64,8.21-1.6,2.57-.96,4.99-2.72,6.12-5.28,0-.16.16-.48.32-.64,0,0,10.3,3.52,15.45-3.84,5.15-7.52-1.29-10.24-1.29-10.24,0,0-10.14-10.72-22.21-9.28-47.48,5.92-26.56,20.96-26.56,20.96,0,0-14.65,12.96-4.35,28.01h.16Z"/>
      <path class="st12" d="M155.31,244.29c-.16,0-.32,0-.48-.16,0,0-6.6-10.72-15.13-23.69-.48-.8-.97-1.6-1.61-2.24l-.64-.8c-9.34-13.92,1.77-25.93,4.02-28.33-1.45-1.12-5.15-4.64-4.18-8.96,1.45-5.92,12.07-10.08,31.38-12.48,11.59-1.44,21.73,8.32,22.53,9.28.48.16,2.57,1.44,3.38,3.84.64,2.08,0,4.48-1.93,7.2-4.83,6.88-13.68,4.8-15.61,4.16v.32c-1.29,2.4-3.54,4.48-6.6,5.6-2.57.96-5.15,1.28-7.73,1.44,1.45,4.64,1.93,9.6,1.13,14.56,0,.32-.16,1.12-.8,1.28-.48.16-1.13,0-1.45-.32-.32-.16-.97-.8-1.61-1.44-1.61-1.44-4.18-3.84-6.12-3.52-.8,0-1.61.64-2.25,1.76-1.77,3.04-.96,5.6,0,7.36,1.61,2.56,4.18,3.84,5.31,3.84h.32v.32l-2.09,20.65c0,.16-.16.32-.32.48l.48-.16ZM171.08,168.27h-2.25c-23.5,2.88-29.62,8-30.58,11.84-1.13,4.32,4.18,8.16,4.18,8.32,0,0,.16.16.16.32s0,.32-.16.32c0,0-3.54,3.2-5.96,8.16-3.06,6.56-2.57,13.12,1.61,19.21l.64.8c.48.8.97,1.6,1.61,2.24,6.92,10.4,12.55,19.37,14.49,22.41l1.77-18.73c-1.61-.16-4.18-1.76-5.63-4.16-1.61-2.72-1.77-5.6,0-8.32.8-1.28,1.77-1.92,2.9-2.08,2.41-.32,5.15,2.24,6.92,3.84.64.64,1.13.96,1.45,1.28,0,0,.48.32.48.16.16,0,.16-.48.32-.64.64-4.8.32-9.92-1.29-14.56v-.48c0-.16.16-.16.32-.16,2.57-.32,5.47-.48,8.05-1.44,2.74-.96,4.99-2.88,5.96-4.96,0-.32.32-.64.48-.8,0-.16.32-.16.48,0s9.98,3.36,14.81-3.68c1.61-2.4,2.25-4.48,1.77-6.4-.64-2.24-2.9-3.2-2.9-3.2h-.16s-8.85-9.28-19.48-9.28h0Z"/>
      <path class="st12" d="M177.04,191.79h-.16c-.16,0-.32-.48-.16-.64,1.77-3.2,1.77-5.28,1.77-5.28,0-.32.16-.48.48-.48s.48.16.48.48,0,2.4-1.77,5.76c0,.16-.32.32-.48.32l-.16-.16Z"/>
      <path class="st12" d="M140.02,220.12c8.69,13.12,15.13,23.69,15.13,23.69l2.09-20.65c-2.74.16-9.66-5.44-5.79-11.84,3.22-5.28,8.85,1.92,10.62,3.04.32.16.64.32.96.32s.48-.64.48-.96c.8-4.96.32-10.08-1.45-14.88-5.63.64-18.35.64-18.35.64,0,0,1.77,4,2.9,9.92.8,4.32-4.02,8.64-6.6,10.72h0Z"/>
      <path class="st12" d="M155.31,244.29c-.16,0-.32,0-.48-.16,0,0-6.6-10.72-15.13-23.69v-.64c2.25-1.76,7.24-6.08,6.44-10.24-1.13-5.76-2.9-9.76-2.9-9.76v-.48c0-.16.16-.16.32-.16,0,0,12.88,0,18.35-.64.16,0,.48,0,.48.32,1.61,4.8,2.09,10.08,1.45,15.04,0,.32-.16,1.12-.8,1.28-.48.16-1.13,0-1.45-.32-.32-.16-.96-.8-1.61-1.44-1.61-1.44-4.18-3.84-6.12-3.52-.8,0-1.61.64-2.25,1.76-1.77,3.04-.96,5.6,0,7.36,1.61,2.56,4.18,3.84,5.31,3.84h.32v.32l-2.09,20.65c0,.16-.16.32-.32.48h.48ZM140.67,220.28c6.76,10.24,12.23,19.04,14.16,22.09l1.77-18.73c-1.61-.16-4.18-1.76-5.63-4.16-1.61-2.72-1.77-5.6,0-8.32.8-1.28,1.77-1.92,2.9-2.08,2.41-.32,5.15,2.24,6.92,3.84.64.64,1.13.96,1.45,1.28,0,0,.48.32.48.16.16,0,.16-.48.32-.64.64-4.8.32-9.6-1.29-14.24-4.99.48-14.65.64-17.38.64.48,1.44,1.77,4.8,2.74,9.28.8,4.32-3.54,8.48-6.44,10.88Z"/>
      <path class="st12" d="M174.95,242.69c-7.4,0-11.91-4.48-12.07-4.64s-.16-.48,0-.64.48-.16.64,0c0,0,5.79,5.6,14.81,4,.32,0,.48,0,.64.32s0,.48-.32.64c-1.29.16-2.41.32-3.54.32h-.16Z"/>
      <path class="st12" d="M158.85,216.76c-.16,0-.32,0-.48-.16-1.29-2.24-2.9-2.88-3.54-3.2-.64-.16-1.29,0-1.77.16h-.64c-.16,0,0-.48,0-.64.64-.32,1.61-.48,2.41-.32,1.61.32,3.06,1.6,4.18,3.52,0,.16,0,.48-.16.64h0Z"/>
      <path class="st12" d="M155.63,219.16s-.32,0-.32-.16c-1.93-2.4-.8-6.08-.8-6.24,0-.32.32-.32.64-.32s.32.32.32.64c0,0-.97,3.36.64,5.28.16.16,0,.48,0,.64h-.32l-.16.16Z"/>
      <path class="st3" d="M196.84,174.35l-5.79,2.88c1.93-.96,3.86-1.92,5.79-2.88Z"/>
      <path class="st12" d="M191.04,177.55c-.16,0-.32,0-.48-.32,0-.16,0-.48.16-.64,1.77-.96,3.86-1.92,5.79-2.88.16,0,.48,0,.64.16,0,.16,0,.48-.16.64l-5.79,2.88h-.16v.16Z"/>
      <path class="st3" d="M189.11,190.67c.16-.32,3.54-4.8,4.35-8.64.48-2.24-1.45-4.16-3.7-4-1.45.16-3.22.64-4.67,1.44-.32,0-.64.32-.97.32l-.8.32c-1.77.8-3.06,1.6-3.38,1.76-21.57,11.36-45.87,25.29-45.87,25.29,0,0-9.98-21.13,3.22-34.09,9.66-9.44,24.46-13.12,34.28-12.32,3.7.32,6.76,1.28,8.37,2.72,3.22,2.72,7.4,8.16,10.62,12.8l1.77-.8,4.02-1.92c5.47-2.56,10.62-4.48,13.52-3.68,11.59,3.36-20.12,20.32-21.08,20.65l.32.16Z"/>
      <path class="st12" d="M134.07,207.64s-.16,0-.32-.32c0-.16-9.98-21.61,3.22-34.57,9.98-9.76,24.95-13.28,34.6-12.48,3.86.32,6.92,1.28,8.69,2.88,2.57,2.24,6.12,6.4,10.62,12.48l5.47-2.72c6.92-3.2,11.43-4.48,14-3.68,1.77.48,2.74,1.44,2.9,2.56.64,6.08-22.85,18.56-23.82,19.04h-.64c-.16,0-.16-.48,0-.64.64-.8,3.54-4.8,4.35-8.48.16-.96,0-1.76-.64-2.56-.64-.64-1.45-.96-2.57-.96-1.29,0-2.9.64-4.51,1.28-.16,0-.32.16-.48.16l-1.13.48c-1.61.8-2.9,1.6-3.22,1.76-21.25,11.36-45.55,25.13-45.87,25.29h-.16l-.48.48ZM168.99,161.23c-9.5,0-22.37,3.68-31.22,12.32-11.75,11.52-4.67,29.77-3.22,32.97,3.54-1.92,25.75-14.56,45.39-24.97.48-.32,1.77-1.12,3.38-1.92l1.13-.48c.16,0,.32-.16.64-.16,1.29-.48,3.06-1.28,4.83-1.44,1.29,0,2.41.32,3.38,1.28.8.96,1.13,2.08.96,3.36-.48,2.56-2.09,5.44-3.22,7.2,7.24-4,21.89-12.96,21.57-17.12,0-.8-.8-1.44-2.25-1.76-2.25-.64-6.6.48-13.2,3.68l-5.79,2.88h-.64c-4.51-6.24-8.05-10.4-10.62-12.64-1.61-1.44-4.51-2.4-8.21-2.56h-2.58l-.32-.64Z"/>
      <path class="st12" d="M180.74,182.03c-.16,0-.32,0-.48-.32,0-.16,0-.48.16-.64l9.98-5.12c.16,0,.48,0,.64.16,0,.16,0,.48-.16.64l-9.98,5.12h-.16v.16Z"/>
      <path class="st12" d="M131.17,197.88c3.22-1.44,4.99,3.36,6.44,7.36l-3.54,1.92s-2.41-5.76-2.9-9.28Z"/>
      <path class="st12" d="M134.07,207.64h-.16s-.16,0-.32-.32c0-.16-2.41-5.76-2.9-9.44,0-.16,0-.48.32-.48.8-.32,1.77-.32,2.41,0,2.25.96,3.54,4.64,4.67,7.68,0,.16,0,.48-.16.64l-3.54,1.92h-.32ZM131.81,198.2c.48,2.88,2.09,6.88,2.57,8.32l2.74-1.6c-.96-2.56-2.25-5.92-4.02-6.72-.48-.16-.96-.16-1.45,0h.16Z"/>
      <path class="st12" d="M140.66,204.12c-.16,0-.32,0-.48-.32-1.45-4.32-3.54-7.04-5.79-8-1.93-.8-3.38,0-3.38,0-.16,0-.48,0-.64-.16,0-.16,0-.48.16-.64,0,0,1.77-.96,4.18,0,2.57.96,4.67,3.84,6.28,8.64,0,.32,0,.48-.32.64h-.16l.16-.16Z"/>
      <path class="st15" d="M192.49,175.47l-8.21,4.16-.8.32-11.91-19.21c3.7.32,6.76,1.28,8.37,2.72,3.22,2.72,7.4,8.16,10.62,12.8l1.77-.8h.16Z"/>
      <path class="st12" d="M183.48,180.59c-.16,0-.32,0-.48-.16l-11.91-19.21v-.32q0-.16.16-.32h.32c3.86.32,6.92,1.28,8.69,2.88,2.57,2.24,6.12,6.4,10.62,12.48l1.29-.64c.16,0,.48,0,.64.16,0,.16,0,.48-.16.64l-9.01,4.64h-.16v-.16ZM172.53,161.39l11.11,18.09,6.44-3.2c-4.35-5.92-7.73-10.08-10.3-12.16-1.45-1.28-4.02-2.24-7.24-2.56v-.16Z"/>
      <path class="st12" d="M162.55,191.79c-.16,0-.32,0-.48-.16l-14.81-25.61c0-.16,0-.48.16-.64s.48,0,.64.16l14.81,25.61c0,.16,0,.48-.16.64h-.16Z"/>
      <path class="st16" d="M380.96,476.51c-.64-1.44-13.84-21.61-13.84-21.61l-34.28,21.13,19.48,36.97,29.61-12.64-1.13-23.85h.16Z"/>
      <path class="st12" d="M352.32,513.32c-.16,0-.32,0-.48-.32l-19.48-36.97c0-.16,0-.48.16-.64l34.28-21.13h.64c.48.8,13.2,20.33,13.84,21.77v.16l1.13,23.85c0,.16,0,.32-.32.48l-29.61,12.64h-.16v.16ZM333.48,476.03l19.15,36.17,28.97-12.32-1.13-23.37c-.8-1.6-9.66-15.36-13.52-21.13l-33.48,20.65Z"/>
      <path class="st15" d="M351.83,528.36c1.13,2.72,2.42,5.12,4.67,6.88,3.06,2.56,7.89,3.84,16.42,3.04,14.48-1.28,37.82-20.48,53.11-37.45,14-15.52,23.02-24.81,16.9-33.77-.48-.8-1.29-1.6-1.93-2.4-5.15-4.96-14.97-5.12-26.23-2.56-10.14,2.24-21.41,6.56-31.39,11.2-6.12,1.44-4.83,6.56-4.35,11.36.16,2.4.32,4.8-.8,6.56-3.22,5.76-11.27,12.8-20.28,9.76-9.01-3.04-14.33,4.32-14.33,4.32,0,0,5.31,16.16,8.21,22.73v.32Z"/>
      <path class="st12" d="M368.25,539.08c-5.31,0-9.33-1.12-12.07-3.36-2.42-1.92-3.7-4.64-4.83-7.04-2.74-6.56-8.05-22.73-8.21-22.89v-.48s5.63-7.52,14.81-4.48c8.85,2.88,16.9-4.32,19.8-9.6.96-1.76.8-4.16.64-6.4v-1.44c-.48-4.48-.97-9.12,4.83-10.56,11.11-5.28,22.21-9.28,31.39-11.2,12.88-2.88,21.73-1.92,26.56,2.72.8.8,1.61,1.6,2.09,2.4,6.28,8.8-1.93,17.77-15.45,32.81l-1.45,1.6c-15.61,17.12-38.95,36.17-53.43,37.61-1.77.16-3.22.16-4.83.16l.16.16ZM352.31,528.2c.96,2.4,2.25,4.96,4.51,6.72,3.22,2.72,8.37,3.52,16.1,2.88,14.33-1.28,37.34-20.16,52.79-37.29l1.45-1.6c13.2-14.56,21.24-23.37,15.45-31.53-.48-.8-1.13-1.44-1.93-2.24-4.51-4.48-13.2-5.28-25.75-2.4-9.01,1.92-20.12,5.92-31.06,11.2-5.15,1.28-4.83,5.12-4.18,9.6v1.44c.16,2.24.32,4.8-.8,6.88-5.79,10.56-15.61,11.68-20.92,10.08-7.89-2.56-12.71,2.88-13.52,4,.64,2.08,5.47,16.33,8.05,22.57l-.16-.32Z"/>
      <path class="st3" d="M356.5,535.4c7.57,21.29,42.33-4.32,69.53-34.41,14-15.52,23.02-24.81,16.9-33.77-7.89,18.08-44.74,47.53-61.64,57.94-11.59,7.04-19.96,9.44-24.79,10.24h0Z"/>
      <path class="st12" d="M367.12,543.57c-.96,0-1.77,0-2.58-.32-4.02-.8-6.76-3.36-8.37-7.84v-.32s.16-.16.32-.16c4.83-.8,13.2-3.04,24.62-10.08,17.38-10.72,53.76-39.85,61.48-57.61,0-.16.16-.32.32-.32s.32,0,.48.16c6.28,8.8-1.93,17.76-15.45,32.81l-1.45,1.6c-18.19,20.01-43.94,42.41-59.39,42.41v-.32ZM357.14,535.72c1.45,3.84,4.02,6.08,7.4,6.72,9.01,1.76,30.42-8.16,61-41.77l1.45-1.6c12.88-14.08,20.76-22.89,15.93-30.89-8.53,18.08-44.26,46.73-61.48,57.3-11.11,6.88-19.31,9.28-24.3,10.24Z"/>
      <path class="st3" d="M379.03,484.99c29.94-10.4,36.05-16.8,35.73-22.57-10.14,2.24-21.41,6.56-31.39,11.2-6.12,1.44-4.83,6.56-4.35,11.36Z"/>
      <path class="st12" d="M379.03,485.31h-.32s-.16-.16-.16-.32v-1.44c-.48-4.48-.97-9.12,4.83-10.56,11.11-5.28,22.21-9.28,31.39-11.2h.32c.16,0,.32.16.32.48.32,7.52-9.98,14.08-36.05,23.05h-.32ZM414.28,462.9c-9.01,2.08-19.8,5.92-30.58,11.04-5.15,1.28-4.83,5.12-4.18,9.6v.8c29.94-10.4,34.76-16.64,34.76-21.45Z"/>
      <path class="st12" d="M352.15,522.12c-1.13,0-2.09,0-3.06-.32-.32,0-.48-.32-.32-.64.16-.32.32-.48.64-.32,9.82,1.92,28.65-7.2,37.34-14.4.97-.8,1.93-1.44,2.9-2.24,8.53-6.72,18.03-14.24,11.27-28.01,0-.16,0-.48.16-.64.16,0,.48,0,.64.16,7.24,14.4-3.22,22.57-11.43,29.13-.96.8-1.93,1.6-2.9,2.24-8.05,6.56-24.62,14.88-35.09,14.88l-.16.16Z"/>
      <path class="st17" d="M235.46,442.26l44.42-15.52,47.48,72.18,56.33-38.73s-42.97-95.07-60.84-106.43c-17.86-11.36-90.29,13.6-90.29,13.6l2.74,74.74.16.16Z"/>
      <g class="st6">
        <g>
          <path class="st13" d="M238.52,369.44c14.65,16,18.67,43.69,29.13,44.81,10.46,1.12,35.09-12,33.48-3.2-1.61,8.8-.32,25.45,12.55,43.85,12.88,18.24,35.73,29.13,50.86,18.89,14.97-10.4,4.67,15.52,4.67,15.52l-36.21,19.2-38.63,8-68.4-59.7,12.71-87.22-.16-.16Z"/>
          <path class="st12" d="M234.98,358.56c13.68,19.68,20.6,68.02,23.02,82.1,2.41,14.08-36.7,16.8-36.7,16.8l13.68-98.91Z"/>
        </g>
      </g>
      <path class="st12" d="M327.53,499.39s-.16,0-.32-.16l-47.32-71.86-44.1,15.36h-.48s-.16-.16-.16-.32l-2.74-74.74c0-.16,0-.32.32-.48.16,0,18.35-6.4,38.47-11.2,27.2-6.4,44.74-7.36,52.15-2.56,7.4,4.8,20.12,24.17,37.34,57.61,12.88,24.81,23.66,48.65,23.66,48.97,0,.16,0,.48-.16.64l-56.33,38.73h-.32ZM279.89,426.26c.16,0,.32,0,.32.16l47.32,71.86,55.69-38.25c-2.9-6.4-43.46-94.9-60.52-105.79-16.9-10.72-84.18,11.84-89.49,13.6l2.74,73.78,43.78-15.2h.16v-.16Z"/>
      <path class="st17" d="M247.05,396.65c0,50.57-13.04,78.58-54.88,120.19-41.85,41.61-105.58,74.58-105.58,74.58,0,0,4.51-11.2,0-34.41s-43.13-67.7-57.14-63.06c0,0,59.07-35.69,78.06-49.29,0,0-28.33-27.69-17.06-48.17h156.6v.16Z"/>
      <g class="st7">
        <path class="st13" d="M141.63,387.52c-15.93,15.04.48,28.81-3.38,44.33s-60.19,50.09-63.57,65.14c-3.38,14.88,41.53,46.41,41.53,77.46s-23.34,36.65-23.34,36.65l-63.9-53.77L.32,479.87l82.89-98.59,58.42,6.24Z"/>
      </g>
      <path class="st12" d="M86.59,591.9h-.32s-.16-.32,0-.48c0,0,4.35-11.36,0-34.09-3.7-19.04-29.29-50.41-45.71-60.02-4.67-2.72-8.21-3.52-10.94-2.72-.16,0-.48,0-.64-.32,0-.16,0-.48.16-.64.64-.32,58.26-35.21,77.58-48.81-3.38-3.52-27.36-29.13-16.74-48.33,0-.16.32-.32.48-.32h156.6c.32,0,.48.16.48.48,0,50.41-12.71,78.58-55.04,120.67-42.33,42.09-105.1,74.26-105.74,74.58h-.16ZM31.7,493.15c2.58,0,5.63,1.12,9.17,3.2,16.58,9.6,42.49,41.29,46.19,60.66,3.7,19.21,1.29,30.09.32,33.45,8.53-4.48,66.15-35.69,104.46-73.94,42.01-41.77,54.72-69.62,54.72-119.39H90.61c-10.62,20.01,16.9,47.05,17.06,47.37,0,0,.16.16,0,.32,0,0,0,.32-.16.32-16.9,12-65.51,41.61-76.13,48.01h.32Z"/>
      <path class="st12" d="M86.59,591.42c-.97-.48-31.87-14.56-45.87-44.01-14.32-29.93-11.27-53.45-11.27-53.45,14-4.64,52.79,39.85,57.14,63.06,4.51,23.21,0,34.41,0,34.41h0Z"/>
      <path class="st12" d="M86.59,591.9h-.32c-1.93-.96-32.03-14.88-46.19-44.17-14.16-29.77-11.27-53.45-11.27-53.61s0-.32.32-.32c2.9-.96,6.76,0,11.75,2.72,16.58,9.6,42.49,41.29,46.19,60.66,4.51,23.05,0,34.25,0,34.57,0,0-.16.32-.32.32l-.16-.16ZM29.93,494.43c-.32,2.88-1.93,25.13,11.27,52.81,13.36,27.85,41.2,41.61,45.23,43.53.8-2.4,3.7-13.6-.16-33.61-3.7-19.04-29.29-50.41-45.71-60.02-4.51-2.56-8.05-3.52-10.62-2.88v.16Z"/>
      <path class="st12" d="M90.45,397.13h-.16c-.32,0-.32-.48-.16-.64,0,0,0-.32.8-1.44.64-1.12,1.13-2.08,1.61-2.88l.64-1.28c0-.16.48-.32.64-.16.32,0,.32.48.16.64l-.64,1.28c-.48.8-.97,1.76-1.61,2.88-.64,1.28-.8,1.44-.8,1.44,0,.16-.32.32-.48.32v-.16Z"/>
      <path class="st12" d="M90.45,397.13h-.16c-.32,0-.32-.48-.16-.64,0,0,0-.32.8-1.44.64-1.12,1.13-2.08,1.61-2.88.32-.48.48-.96.64-1.28l.48-.96v-.16s0-.16.16-.32c0-.16,0-.32.16-.32,0,0,0-.16.16-.32v-.16c0-.16.16-.32.32-.48v-.16c.16-.16.48-.16.64,0,.16.16.16.48,0,.64v.8s0,.32-.32.48c0,.16-.16.32-.32.64v.16l-.64,1.12c-.16.32-.48.8-.64,1.28-.48.8-.97,1.76-1.61,2.88-.64,1.28-.8,1.44-.8,1.44,0,.16-.32.32-.48.32l.16-.64Z"/>
      <path class="st15" d="M23.01,362.56c61.8-73.78,84.98-105.15,133.75-111.87,48.77-6.72,110.73,29.61,110.73,29.61l43.29-61.46s25.75,6.72,41.04,17.92c0,0-32.51,73.78-59.55,96.19-27.04,22.4-55.04,4.96-55.04,4.96l9.98,58.73H90.61l4.83-37.77-33.64,41.13-38.63-37.45h-.16Z"/>
      <g class="st8">
        <path class="st5" d="M26.71,381.28s71.78-97.79,92.87-112.51c21.08-14.56,78.22-9.12,105.9,2.4s33.64,13.92,33.48,16.64-2.58,8.64-2.58,8.64c0,0,6.12,1.6,12.39-5.76,6.28-7.2,47.8-73.94,47.8-73.94l-59.55-13.76-193.3,43.05L-14.49,341.91l41.36,39.05-.16.32Z"/>
      </g>
      <path class="st12" d="M61.64,400.49h-.32l-38.63-37.45c-.16-.16-.16-.48,0-.64,4.18-4.96,8.05-9.6,11.91-14.24,52.47-62.74,76.45-91.54,122.16-97.79,25.43-3.52,54.24,4.8,73.88,12.32,19.47,7.52,34.12,15.68,36.7,17.12l42.97-61.14c0-.16.32-.16.48-.16.32,0,26.07,6.88,41.2,17.92.16,0,.16.32.16.64,0,.16-8.21,18.72-19.64,39.69-10.46,19.36-26.07,44.97-40.08,56.65-24.3,20.01-49.73,8.32-54.72,5.6l9.82,57.77v.32s-.16.16-.32.16H90.61s-.32,0-.32-.16v-.32l4.51-36.17-32.51,39.85s-.16.16-.32.16l-.32-.16ZM23.65,362.56l37.98,36.81,33.32-40.81c0-.16.32-.16.48,0,.16,0,.32.32.32.48l-4.67,37.29h155.64l-9.82-58.1c0-.16,0-.32.16-.48s.32,0,.48,0c.32.16,28.17,16.8,54.56-4.96,25.59-21.29,56.82-90.1,59.23-95.7-14.16-10.24-37.18-16.65-40.24-17.45l-43.13,61.14c0,.16-.48.32-.64,0-.16,0-15.77-9.12-37.02-17.29-19.64-7.52-48.29-15.68-73.39-12.32-45.39,6.24-67.76,32.97-121.68,97.47-3.7,4.48-7.56,9.12-11.59,13.92h0Z"/>
      <path class="st4" d="M310.79,218.84c5.95-9.28,2.41-20.65,14-20.17,0,0,4.18-6.72,7.89-8.8,3.7-2.08,7.24-.48,7.89,3.04,0,0,3.7-1.76,6.6.32,2.9,2.08,2.74,4.48,2.74,4.48,0,0,4.99-.48,7.08,2.72,2.09,3.2.8,5.12.8,5.12,0,0,6.44-.32,6.28,6.24-.32,6.56-12.23,24.97-12.23,24.97l-41.04-17.93Z"/>
      <g class="st9">
        <g>
          <path class="st13" d="M325.92,197.07s-8.37,11.68-6.6,15.84c1.61,4.16,36.7,22.89,36.7,22.89l-3.22,4.64-46.03-21.6,2.58-15.68,8.37-8.16,8.21,2.08Z"/>
          <path class="st13" d="M333.48,188.43c3.86,0,4.51,2.56,4.18,4.16s-1.61,4.48-.97,4.96c.64.48,1.93-1.76,2.58-2.88.64-1.12,2.09-3.84,2.09-3.84l-.97-3.68-5.15-.64-1.77,1.76v.16Z"/>
          <path class="st13" d="M345.39,192.59c1.77.64,2.74,3.36,2.25,4.96-.48,1.6-1.45,4-.64,4.64.8.64,2.9-3.84,3.7-5.76.8-1.92-.8-4.8-.8-4.8l-2.9-1.28-1.77,2.4.16-.16Z"/>
          <path class="st13" d="M354.24,198.36c2.09,1.76,2.25,5.44,1.61,6.56-.64,1.12-2.09,5.12-1.13,5.6s2.58-4.16,2.58-4.16l1.77-3.68-1.29-5.6-3.54,1.12"/>
          <path class="st13" d="M359.71,205.88c1.93,2.08,1.93,3.36,1.61,7.52-.32,4.16-2.74,9.44-.32,10.24,2.42.8,6.92-11.04,6.92-11.04l-3.06-8.32-5.15,1.6Z"/>
        </g>
      </g>
      <g>
        <path class="st12" d="M318.03,209.56h-.32c-.16,0-.32-.48,0-.64l6.76-10.4c0-.16.48-.32.64,0,.16,0,.32.48,0,.64l-6.76,10.4s-.16.16-.32.16v-.16Z"/>
        <path class="st12" d="M338.15,197.55h-.16c-.16,0-.32-.48-.16-.64l2.41-4.16c0-.16.48-.32.64-.16.16,0,.32.48.16.64l-2.42,4.16c0,.16-.32.16-.48.16Z"/>
        <path class="st12" d="M347.97,201.88h-.16c-.16,0-.32-.48-.16-.64l1.93-3.84c0-.16.48-.32.64-.16.16,0,.32.48.16.64l-1.93,3.84c0,.16-.32.32-.48.32v-.16Z"/>
        <path class="st12" d="M355.85,210.04h-.16c-.16,0-.32-.32-.16-.64l1.93-4.16c0-.16.32-.32.64-.16s.32.32.16.64l-1.93,4.16c0,.16-.32.32-.48.32v-.16Z"/>
        <path class="st12" d="M312.72,215.16c15.93,8.16,39.11,21.61,39.11,21.61l-41.04-17.93,1.93-3.84v.16Z"/>
        <path class="st12" d="M351.83,237.25h-.16l-41.04-17.93s-.16-.16-.32-.32v-.32l1.93-3.84s.16-.16.32-.16h.32c15.77,8.16,38.79,21.45,39.11,21.61.16,0,.32.32.16.64,0,.16-.32.32-.48.32h.16ZM311.43,218.68l32.51,14.24c-8.05-4.64-20.92-11.84-31.06-17.12l-1.45,2.88Z"/>
        <path class="st12" d="M351.83,237.25h-.16l-41.04-17.93s-.16-.16-.32-.32v-.32c2.09-3.2,3.06-6.72,3.86-9.92,1.45-5.76,2.74-10.56,10.3-10.56.8-1.28,4.51-6.88,7.89-8.8,1.93-1.12,4.02-1.28,5.63-.48,1.29.64,2.25,1.76,2.74,3.36,1.13-.48,4.18-1.28,6.6.48,2.25,1.6,2.9,3.52,2.9,4.48,1.45,0,5.15.16,7.08,3.04,1.45,2.24,1.45,4,1.13,4.96.97,0,2.9.48,4.35,1.76,1.13,1.12,1.77,2.88,1.61,4.96-.32,6.56-11.75,24.49-12.23,25.13,0,0-.16.16-.32.16h0ZM311.59,218.68l40.08,17.44c1.61-2.56,11.59-18.4,11.91-24.33,0-1.76-.32-3.2-1.45-4.16-1.61-1.6-4.35-1.6-4.35-1.6-.16,0-.32,0-.48-.16v-.48s.97-1.76-.8-4.64c-1.93-2.88-6.6-2.56-6.6-2.56h-.32s-.16-.16,0-.32c0,0,0-2.24-2.58-4.16-2.58-1.92-6.12-.32-6.12-.16h-.48s-.16-.16-.32-.32c-.32-1.44-1.13-2.56-2.41-3.2-1.45-.64-3.06-.48-4.83.48-3.54,1.92-7.73,8.64-7.73,8.64,0,0-.16.16-.48.16-7.08-.32-8.05,4-9.66,9.76-.8,3.04-1.61,6.56-3.7,9.76l.32-.16Z"/>
        <path class="st12" d="M238.52,345.91l-21.57-22.57c5.47,5.44,12.23,10.4,20.28,14.56l1.29,8Z"/>
        <path class="st12" d="M238.52,346.39h-.32l-21.57-22.57c-.16-.16-.16-.48,0-.64.16-.16.48-.16.64,0,5.47,5.44,12.39,10.56,20.12,14.56,0,0,.16.16.32.32l1.29,8c0,.16,0,.48-.32.48h-.16v-.16ZM224.36,330.55l13.36,13.92-.97-6.24c-4.35-2.24-8.53-4.96-12.23-7.68h-.16Z"/>
        <path class="st12" d="M216.79,323.83h-.32c-.64-.64-1.29-1.28-1.93-1.92l-.32-.32c-7.24-8-11.27-16.8-11.43-24.65,0-.32.16-.48.48-.48s.48.16.48.48c0,7.84,4.18,16.48,11.43,24.49l1.93,1.92c.16.16.16.48,0,.64s-.16,0-.32,0v-.16Z"/>
        <path class="st12" d="M101.07,322.55l-14.49,46.89,8.69-10.56c5.95-39.69,12.23-72.66,12.23-72.66"/>
        <path class="st12" d="M86.59,369.76h-.16c-.16,0-.32-.32-.32-.64l14.49-46.89c3.54-21.29,6.44-36.01,6.44-36.17,0-.32.32-.48.64-.32.32,0,.48.32.32.64,0,.32-6.44,33.45-12.23,72.5v.16l-8.69,10.56s-.16.16-.32.16h-.16ZM99.3,329.59l-11.59,37.61,6.92-8.48c1.45-10.24,3.06-20.17,4.51-28.97l.16-.16Z"/>
      </g>
      <path class="st4" d="M61.64,400.01s-13.68,20.96-18.51,22.41c-4.83,1.6-5.47-10.4-5.47-10.4,0,0-18.67,23.69-22.53,25.93-3.86,2.24-8.21-2.4-7.24-5.92,0,0-6.6,6.72-10.14,3.68-3.54-3.04-.8-10.08-.8-10.08,0,0-5.96,5.12-9.17,1.76-3.22-3.36-.48-8.8-.48-8.8,0,0-5.15.96-6.12-4.48-.97-5.44,16.9-21.45,42.01-51.37l38.63,37.45-.16-.16Z"/>
      <g class="st10">
        <g>
          <path class="st13" d="M13.68,371.2c9.82-2.08,22.85,8.64,28.81,17.92,5.96,9.28-.64,17.77-5.63,15.2s-10.3-6.88-9.98-4.16c.32,2.56,5.15,11.68,4.18,14.56s-18.03,23.21-21.57,22.25c-3.38-.96,1.93,7.36,1.93,7.36l34.44-5.76,13.36-19.52,5.63-25.29-14.65-20.33-28.65-15.84-7.56,13.44-.32.16Z"/>
          <path class="st13" d="M20.44,415.53s2.09-2.72.32-3.36c-1.77-.64-10.78,12.32-14.49,16.64-3.7,4.32-9.82,7.04-12.88,5.76-2.9-1.12,7.24,4.96,7.24,4.96l6.44-6.4,13.2-17.61"/>
          <path class="st13" d="M10.62,407.69c.48-1.6.64-3.04-.48-3.2-1.13-.16-7.56,9.76-11.11,13.92s-8.69,8.96-11.27,7.04c-2.41-1.92-1.93,4.96-1.93,4.96l4.51,1.6,5.96-5.6,14.32-18.57"/>
          <path class="st13" d="M2.57,399.69c.8-1.44-.32-1.92-1.13-1.6-.8.32-9.82,11.36-14,14.72-4.18,3.36-6.28,4.16-8.05,2.72-1.77-1.44,1.45,4.96,1.45,4.96h3.7l1.93-1.76,16.09-19.04Z"/>
        </g>
      </g>
      <path class="st12" d="M12.87,438.9c-1.13,0-2.25-.32-3.22-1.12-1.45-1.12-2.41-2.88-2.58-4.64-2.09,1.76-6.76,5.28-9.82,2.72-2.74-2.4-2.09-6.88-1.45-9.28-1.93,1.44-6.12,3.52-8.69.8-2.74-2.88-1.61-6.88-.97-8.48-.8,0-2.25,0-3.54-.96-1.29-.8-1.93-2.24-2.25-4-.64-3.68,5.96-10.88,17.87-24.01,6.76-7.36,14.97-16.64,24.3-27.69,0,0,.16-.16.32-.16h.32l38.63,37.45c0,.16.16.48,0,.64-.48.8-13.84,21.13-18.83,22.73-.97.32-1.77.16-2.58-.32-2.41-1.6-3.06-6.88-3.38-9.28-3.54,4.48-18.35,23.05-21.89,24.97-.8.48-1.61.64-2.41.64h.16ZM7.88,431.38h.32c.16,0,.32.32.16.48-.48,1.6.32,3.68,1.93,4.96,1.45,1.12,3.06,1.28,4.51.48,3.7-2.24,22.21-25.45,22.37-25.77,0-.16.32-.16.48-.16s.32.16.32.48c0,2.24.8,8.16,3.06,9.76.48.32,1.13.48,1.77.16,3.7-1.12,13.36-14.72,18.03-21.93l-37.98-36.81c-9.17,10.88-17.38,20.01-23.98,27.37-10.94,12-18.19,20.01-17.54,23.21.32,1.44.97,2.56,1.93,3.36,1.61,1.12,3.7.8,3.7.8.16,0,.32,0,.48.16.16.16,0,.32,0,.48,0,0-2.41,5.12.48,8.16s8.53-1.76,8.53-1.76c0,0,.32-.16.64,0,.16,0,.32.32.16.64,0,0-2.41,6.88.64,9.6,3.06,2.72,9.34-3.52,9.34-3.52h.32l.32-.16Z"/>
      <path class="st12" d="M-12.88,418.89h-.32c-.16-.16-.32-.48,0-.64l15.93-19.2c.16-.16.48-.16.64,0s.32.48,0,.64l-15.93,19.2-.32.16v-.16Z"/>
      <path class="st12" d="M-3.06,425.77h-.32c-.16-.16-.32-.48,0-.64l14.32-18.4c0-.16.48-.16.64,0,.16.16.32.48,0,.64l-14.32,18.4-.32.16v-.16Z"/>
      <path class="st12" d="M7.88,432.34h-.32c-.16-.16-.32-.48,0-.64l13.52-17.44c0-.16.48-.32.64,0,.16.16.32.48,0,.64l-13.52,17.44-.32.16v-.16Z"/>
      <path class="st12" d="M37.66,412.49h-.32l-16.42-14.4c-.16-.16-.16-.48,0-.64.16-.16.48-.16.64,0l16.42,14.4c.16.16.16.48,0,.64,0,0-.16.16-.32.16v-.16Z"/>
      <path class="st12" d="M19.63,366.4l42.01,33.61-38.63-37.45-3.38,3.84Z"/>
      <path class="st12" d="M61.64,400.49h-.32l-41.85-33.61s0-.16-.16-.32c-.16-.16,0-.32,0-.32l3.22-3.84s.16-.16.32-.16h.32l38.63,37.45c.16.16.16.48,0,.64,0,0-.16.16-.32.16h.16ZM20.43,366.4l33.48,26.89-30.9-29.93-2.58,3.04Z"/>
      <path class="st16" d="M49.24,518.76c1.93,1.76,4.18,4,6.44,6.56,8.85,9.76,16.26,22.09,21.08,34.09l-18.67,12.8-9.01,6.08-19.96-20.97-.32-26.57,1.29-.8,19.15-11.36v.16Z"/>
      <path class="st12" d="M49.25,578.77h-.32l-19.96-20.97v-.32l-.32-26.57c0-.16,0-.32.32-.48l20.44-12h.64c1.93,1.92,4.18,4,6.44,6.56,8.37,9.12,15.93,21.29,21.25,34.25,0,.16,0,.48-.16.64l-27.52,19.04h-.32l-.48-.16ZM29.61,557.01l19.64,20.65,26.88-18.57c-5.31-12.64-12.72-24.65-20.92-33.61-2.09-2.4-4.18-4.48-6.12-6.24l-19.96,11.84.32,26.09.16-.16Z"/>
      <path class="st15" d="M36.85,539.88c-1.61,7.2-6.28,19.21,4.02,24.33,5.15,2.56,9.66,4.16,13.36,6.24,3.86,2.08,6.92,4.48,9.17,8.48,2.25,4.16,4.18,22.24,4.02,41.45-.16,16.65-1.93,34.09-6.44,43.85-2.74,5.92-5.31,10.08-7.56,12.96-5.96,7.68-10.14,7.04-10.14,7.04l-70.82-130.43c2.25-3.2,7.56-7.84,13.84-12.64,11.11-8.32,25.59-16.65,32.67-16.97,11.11-.32,19.31,8.32,17.7,15.52l.16.16Z"/>
      <path class="st12" d="M43.45,684.88h-.32s-.32,0-.32-.16l-70.82-130.43v-.48c2.09-3.04,7.24-7.68,14-12.64,11.11-8.32,25.59-16.8,32.99-16.97,5.96-.16,11.75,2.24,15.29,6.4,2.58,3.04,3.54,6.56,2.9,9.76-.16.96-.48,1.92-.64,3.04-1.93,7.36-4.18,16.48,4.51,20.81,2.25,1.12,4.35,2.08,6.44,2.88,2.58,1.12,4.99,2.24,7.08,3.36,4.51,2.4,7.4,5.12,9.33,8.64,2.41,4.48,4.35,23.05,4.02,41.61,0,11.36-1.13,32.33-6.6,44.01-2.41,5.44-4.99,9.76-7.56,13.12-5.31,6.72-9.17,7.2-10.14,7.2l-.16-.16ZM-26.88,553.81l70.5,129.95c.97,0,4.51-.64,9.34-6.72,2.58-3.2,5.15-7.52,7.56-12.96,5.31-11.52,6.28-32.17,6.44-43.53.16-20.01-1.93-37.45-4.02-41.29-1.93-3.36-4.51-5.92-9.01-8.32-2.09-1.12-4.51-2.24-6.92-3.36-2.09-.96-4.18-1.92-6.44-3.04-9.33-4.64-6.92-14.56-4.99-21.93.32-.96.48-2.08.64-2.88.64-2.88-.32-6.08-2.74-8.96-3.38-4-8.69-6.24-14.49-6.08-7.08.32-21.89,8.96-32.51,16.8-6.44,4.8-11.27,9.28-13.52,12.16l.16.16Z"/>
      <path class="st3" d="M26.55,581.17c19.8,35.37,37.82,68.82,26.88,96.18-5.96,7.68-10.14,7.04-10.14,7.04l-70.82-130.43c2.25-3.2,7.56-7.84,13.84-12.64,0,0,20.28,4.48,40.08,39.85h.16Z"/>
      <path class="st12" d="M43.45,684.88h-.32s-.32,0-.32-.16l-70.82-130.43v-.48c2.09-3.04,7.24-7.68,14-12.64h.32c.16,0,20.76,4.96,40.4,40.17,18.83,33.61,38.31,68.5,26.88,96.51v.16c-5.31,6.72-9.17,7.2-10.14,7.2v-.32ZM-26.88,553.81l70.5,129.95c.97,0,4.51-.64,9.34-6.72,11.11-27.69-8.21-62.26-26.88-95.71-18.35-32.97-37.34-39.05-39.59-39.69-6.28,4.8-11.11,9.12-13.36,12.16Z"/>
      <path class="st17" d="M-27.53,553.81c8.05-12.16,32.83,10.56,52.79,49.61,19.96,39.05,30.42,67.38,18.03,80.82-12.55,13.44-42.33-44.33-53.11-68.02-10.78-23.69-25.11-48.97-17.54-62.42h-.16Z"/>
      <path class="st12" d="M38.94,686.8h-1.13c-17.22-2.72-46.84-67.54-48.12-70.26-1.61-3.52-3.22-6.88-4.83-10.4-9.98-20.97-19.31-40.81-12.71-52.49,1.61-2.4,4.02-3.68,6.92-3.52,11.75.64,31.06,22.57,46.84,53.29,19.96,38.89,30.58,67.7,17.87,81.3-1.29,1.44-2.9,2.24-4.67,2.24l-.16-.16ZM-27.04,554.13c-6.28,11.36,3.38,31.85,12.72,51.53,1.61,3.52,3.22,7.04,4.83,10.4,10.62,23.21,33.96,67.54,47.48,69.62,1.93.32,3.54-.32,4.99-1.76,12.39-13.28,1.77-41.61-18.03-80.18-15.29-29.93-34.6-52.17-46.03-52.65-2.58-.16-4.51.96-5.96,3.04Z"/>
      <path class="st3" d="M54.24,570.45c3.86,2.08,6.92,4.48,9.17,8.48,2.25,4.16,4.18,22.24,4.02,41.45-10.78-4.16-13.68-30.57-13.2-49.93Z"/>
      <path class="st12" d="M67.43,620.86h-.16c-10.78-4.16-14-29.77-13.52-50.41,0-.16,0-.32.32-.32h.48c4.51,2.4,7.4,5.12,9.34,8.64,2.41,4.48,4.35,23.21,4.02,41.61,0,.16,0,.32-.16.32h-.32v.16ZM54.72,571.25c-.32,19.69,2.58,43.69,12.23,48.33,0-19.68-1.93-36.81-4.02-40.49-1.77-3.2-4.35-5.6-8.21-7.84Z"/>
      <path class="st12" d="M55.52,594.94c-11.27-.96-16.09-10.4-21.57-23.85-5.31-13.12-23.66-31.05-35.73-37.61-.32,0-.32-.48-.16-.64s.48-.32.64-.16c12.23,6.72,30.74,24.81,36.21,38.09,5.31,13.12,9.98,22.41,20.76,23.21.32,0,.48.32.48.48,0,.32-.16.48-.48.48h-.16Z"/>
      <path class="st12" d="M107.51,444.82c11.43-7.52,20.12-21.61,20.12-21.61,0,0-18.51,11.52-27.36,13.28"/>
      <path class="st12" d="M107.51,445.3c-.16,0-.32,0-.32-.16v-.64c8.69-5.76,16.1-15.68,18.83-19.69-4.99,3.04-18.35,10.72-25.75,12.16-.32,0-.48,0-.48-.32s0-.48.32-.64c8.69-1.6,27.04-13.12,27.2-13.12h.64c.16.16.16.32,0,.64,0,0-9.01,14.24-20.28,21.77h-.32.16Z"/>
    </g>
  </g>
</svg>